<svg width="15" height="15" viewBox="0 0 15 15" fill="none" xmlns="http://www.w3.org/2000/svg">
<path d="M5.20771 15C5.81646 15 6.30995 14.4865 6.30995 13.853C6.30995 13.2195 5.81646 12.706 5.20771 12.706C4.59896 12.706 4.10547 13.2195 4.10547 13.853C4.10547 14.4865 4.59896 15 5.20771 15Z" fill="white"/>
<path d="M11.903 15C12.5118 15 13.0053 14.4865 13.0053 13.853C13.0053 13.2195 12.5118 12.706 11.903 12.706C11.2943 12.706 10.8008 13.2195 10.8008 13.853C10.8008 14.4865 11.2943 15 11.903 15Z" fill="white"/>
<path d="M14.8823 1.42449C14.8368 1.36601 14.7793 1.31876 14.7141 1.28615C14.6488 1.25354 14.5775 1.23637 14.5051 1.23587H4.30574L4.62417 2.25543H13.8634L12.5554 8.37282H5.20713L2.96836 0.99627C2.94414 0.917997 2.90209 0.846982 2.84579 0.789282C2.78949 0.731583 2.72061 0.688913 2.64503 0.664911L0.636509 0.022585C0.57475 0.00283607 0.509857 -0.00406099 0.445537 0.00228757C0.381216 0.00863613 0.318727 0.028106 0.261637 0.0595856C0.146338 0.123161 0.0600322 0.231796 0.0217042 0.36159C-0.0166238 0.491385 -0.00383379 0.631708 0.0572605 0.751689C0.118355 0.871671 0.222749 0.961483 0.347477 1.00137L2.10616 1.56213L4.35473 8.95397L3.55132 9.63708L3.48763 9.70335C3.28891 9.94167 3.17626 10.2446 3.16911 10.5601C3.16196 10.8755 3.26074 11.1837 3.44844 11.4315C3.58197 11.6005 3.75164 11.7346 3.94388 11.8231C4.13613 11.9116 4.34561 11.9521 4.55558 11.9413H12.7318C12.8617 11.9413 12.9863 11.8876 13.0781 11.792C13.17 11.6964 13.2216 11.5667 13.2216 11.4315C13.2216 11.2963 13.17 11.1666 13.0781 11.071C12.9863 10.9754 12.8617 10.9217 12.7318 10.9217H4.4772C4.42079 10.9197 4.36583 10.9026 4.31763 10.8721C4.26942 10.8415 4.22961 10.7985 4.20203 10.7473C4.17445 10.696 4.16004 10.6382 4.16019 10.5795C4.16033 10.5208 4.17503 10.4631 4.20287 10.412L5.38349 9.39239H12.9473C13.0605 9.39527 13.1712 9.35722 13.2606 9.28472C13.3499 9.21222 13.4123 9.10975 13.4372 8.99476L14.9901 1.8578C15.005 1.7818 15.003 1.70327 14.9844 1.62818C14.9657 1.55309 14.9308 1.48342 14.8823 1.42449Z" fill="white"/>
</svg>
