<svg width="12" height="12" viewBox="0 0 12 12" fill="none" xmlns="http://www.w3.org/2000/svg">
<path d="M6 0.631579C5.29497 0.63162 4.59685 0.770528 3.9455 1.04037C3.29415 1.31021 2.70233 1.70571 2.20382 2.20427C1.70532 2.70283 1.30989 3.2947 1.04013 3.94608C0.770363 4.59746 0.631537 5.2956 0.631579 6.00063C0.63162 6.70566 0.770528 7.40378 1.04037 8.05513C1.31021 8.70648 1.70571 9.29831 2.20427 9.79681C2.70283 10.2953 3.2947 10.6907 3.94608 10.9605C4.59746 11.2303 5.2956 11.3691 6.00063 11.3691C7.42451 11.369 8.79003 10.8033 9.79681 9.79636C10.8036 8.78947 11.3691 7.42388 11.3691 6C11.369 4.57612 10.8033 3.2106 9.79636 2.20382C8.78947 1.19705 7.42388 0.631495 6 0.631579ZM6 0C7.5913 0 9.11742 0.632141 10.2426 1.75736C11.3679 2.88258 12 4.4087 12 6C12 7.5913 11.3679 9.11742 10.2426 10.2426C9.11742 11.3679 7.5913 12 6 12C4.4087 12 2.88258 11.3679 1.75736 10.2426C0.632141 9.11742 0 7.5913 0 6C0 4.4087 0.632141 2.88258 1.75736 1.75736C2.88258 0.632141 4.4087 0 6 0ZM5.68421 8.8421H6.31579V10.1053H5.68421V8.8421ZM6 1.89474C6.58627 1.89474 7.14852 2.12763 7.56308 2.54219C7.97763 2.95674 8.21053 3.51899 8.21053 4.10526C8.21053 4.67179 7.76905 5.06463 7.30168 5.47958L6.71116 6.04989C6.33979 6.47558 6.29937 7.28463 6.31516 7.56063V7.57895H5.68421C5.68168 7.5461 5.61979 6.33853 6.23621 5.63432L6.88168 5.00779C7.25558 4.67558 7.57895 4.38821 7.57895 4.10526C7.57895 3.6865 7.41259 3.28489 7.11648 2.98878C6.82037 2.69267 6.41876 2.52632 6 2.52632C5.58124 2.52632 5.17963 2.69267 4.88352 2.98878C4.58741 3.28489 4.42105 3.6865 4.42105 4.10526H3.78947C3.78947 3.51899 4.02237 2.95674 4.43692 2.54219C4.85148 2.12763 5.41373 1.89474 6 1.89474Z" fill="#FF881F"/>
</svg>
