<svg width="162" height="26" viewBox="0 0 162 26" fill="none" xmlns="http://www.w3.org/2000/svg">
<path d="M23.6911 0.263916L17.4199 10.3756L19.6389 14.0101L24.42 6.65985V25.6243H29.169V0.263916H23.6911Z" fill="#FF881F"/>
<path d="M13.2391 12.4974L5.76732 0.263916H0V25.6243H4.74893V6.65985L12.3279 18.3654H16.8088L13.2391 12.4974Z" fill="#FF881F"/>
<path d="M51.392 0.263916H46.493L48.6262 5.49234L48.6369 5.46188L52.4425 14.8629H44.8099L46.0856 11.736L43.7701 6.05072L35.5801 25.6243H40.1789L43.1698 18.9847H54.1041L57.095 25.6243H61.9725L51.392 0.263916Z" fill="#FF881F"/>
<path d="M92.6728 18.3553V0.263916H87.9238V12.0507L92.6728 18.3553Z" fill="#FF881F"/>
<path d="M86.2409 17.5634L72.9803 0.263916H67.7383V25.6243H72.4872V6.10148L87.3772 25.6243H92.3191L86.2409 17.5634Z" fill="#FF881F"/>
<path d="M113.835 11.5126V15.472H122.218V20.3451C120.749 21.3299 118.862 21.8274 116.547 21.8274C114.435 21.8274 112.537 21.4416 110.844 20.6801C109.15 19.9187 107.831 18.8426 106.877 17.4619C106.448 16.8426 106.138 16.1827 105.902 15.5025H100.928C101.003 15.9187 101.099 16.335 101.217 16.7411C101.571 17.9593 102.139 19.137 102.922 20.2639C103.704 21.3908 104.669 22.3756 105.816 23.2182C106.963 24.0609 108.378 24.7309 110.083 25.2385C111.787 25.7461 113.663 25.9999 115.721 25.9999C120.556 25.9999 124.276 24.6598 126.881 21.9695V11.5126H113.835Z" fill="#FF881F"/>
<path d="M105.559 11.5128C105.688 10.6904 105.935 9.90871 106.32 9.1879C106.899 8.09145 107.682 7.17775 108.657 6.46709C109.633 5.75643 110.737 5.19805 111.981 4.81226C113.224 4.42648 114.51 4.22343 115.84 4.22343C117.201 4.22343 118.552 4.39602 119.892 4.73104C121.232 5.06607 122.357 5.45186 123.247 5.87825L123.923 6.21328L125.906 2.68028L125.241 2.32495C122.4 0.822416 119.206 0.0812988 115.647 0.0812988C113.696 0.0812988 111.906 0.314801 110.255 0.781806C108.604 1.24881 107.21 1.89856 106.042 2.71074C104.873 3.52292 103.887 4.47724 103.062 5.57368C102.236 6.67013 101.636 7.83764 101.239 9.08637C100.993 9.87825 100.832 10.6904 100.746 11.5128H105.559Z" fill="#FF881F"/>
<path d="M160.188 5.92893C158.966 4 157.294 2.52792 155.171 1.51269C153.049 0.497462 150.626 0 147.903 0C145.148 0 142.704 0.527919 140.571 1.58376C138.438 2.63959 136.765 4.15228 135.554 6.13198C134.342 8.11168 133.742 10.4061 133.742 13.0152C133.742 15.1066 134.128 16.9848 134.9 18.6497C135.672 20.3147 136.712 21.665 138.03 22.7107C139.349 23.7563 140.828 24.5381 142.49 25.0863C143.476 25.4112 144.505 25.6244 145.556 25.7563V21.5025C143.937 21.1371 142.522 20.4061 141.3 19.2792C139.499 17.6142 138.609 15.4112 138.609 12.6599C138.609 11.5025 138.781 10.4467 139.134 9.49239C139.488 8.53807 139.96 7.72589 140.549 7.07614C141.139 6.4264 141.825 5.86802 142.608 5.42132C143.39 4.97462 144.216 4.64975 145.062 4.43655C145.909 4.22335 146.799 4.12183 147.7 4.12183C148.6 4.12183 149.49 4.22335 150.369 4.43655C151.248 4.64975 152.095 4.98477 152.909 5.44163C153.724 5.89848 154.453 6.46701 155.075 7.13706C155.697 7.80711 156.2 8.6396 156.576 9.64467C156.951 10.6497 157.144 11.7563 157.144 12.9746C157.144 14.4569 156.876 15.7868 156.329 16.9543C155.782 18.1218 155.075 19.0457 154.185 19.7157C153.295 20.3858 152.32 20.9036 151.269 21.2487C150.916 21.3604 150.551 21.4518 150.197 21.533V25.7157C152.009 25.4822 153.681 24.9949 155.182 24.2234C157.347 23.1168 159.02 21.5635 160.21 19.5533C161.4 17.5431 162 15.2487 162 12.6599C162.021 10.1117 161.41 7.86802 160.188 5.92893Z" fill="#FF881F"/>
</svg>
