<svg width="15" height="15" viewBox="0 0 15 15" fill="none" xmlns="http://www.w3.org/2000/svg">
<path d="M6.10127 0.96107C7.1179 0.960143 8.11196 1.26043 8.9577 1.82394C9.80345 2.38746 10.4629 3.18888 10.8526 4.12683C11.2423 5.06477 11.3447 6.0971 11.1469 7.09322C10.9492 8.08933 10.4601 9.00448 9.74155 9.72288C9.02301 10.4413 8.10731 10.9307 7.11029 11.1291C6.11326 11.3276 5.07971 11.2262 4.14038 10.8378C3.20105 10.4494 2.39815 9.79142 1.83325 8.94711C1.26834 8.10281 0.966819 7.11011 0.966819 6.09459C0.972982 4.73581 1.51576 3.43436 2.47719 2.4731C3.43862 1.51184 4.741 0.968468 6.10127 0.96107ZM6.10127 0C4.89455 0 3.71494 0.357442 2.71159 1.02712C1.70824 1.69681 0.926225 2.64865 0.464434 3.76229C0.00264367 4.87593 -0.118182 6.10135 0.117237 7.28359C0.352656 8.46582 0.933745 9.55178 1.78702 10.4041C2.6403 11.2565 3.72744 11.8369 4.91097 12.0721C6.0945 12.3072 7.32126 12.1865 8.43612 11.7253C9.55099 11.264 10.5039 10.4828 11.1743 9.48057C11.8447 8.47832 12.2025 7.29999 12.2025 6.09459C12.2025 4.47821 11.5597 2.92802 10.4155 1.78506C9.27131 0.642107 7.71943 0 6.10127 0Z" fill="white"/>
<path d="M14.8637 14.2004L11.4047 10.7218L10.7383 11.3828L14.1972 14.8614C14.2407 14.9051 14.2923 14.9399 14.3492 14.9637C14.4061 14.9874 14.4671 14.9998 14.5288 15C14.5905 15.0002 14.6516 14.9883 14.7086 14.9649C14.7657 14.9416 14.8176 14.9072 14.8613 14.8638C14.9051 14.8204 14.9399 14.7688 14.9637 14.712C14.9875 14.6551 14.9998 14.5942 15 14.5326C15.0003 14.471 14.9883 14.4099 14.9649 14.3529C14.9415 14.296 14.9071 14.2441 14.8637 14.2004Z" fill="white"/>
</svg>
