<svg width="15" height="11" viewBox="0 0 15 11" fill="none" xmlns="http://www.w3.org/2000/svg">
<path d="M14.5029 5.34062C13.9516 3.91452 12.9945 2.68123 11.7499 1.79317C10.5052 0.905104 9.02768 0.401206 7.4998 0.34375C5.97192 0.401206 4.49436 0.905104 3.24974 1.79317C2.00512 2.68123 1.048 3.91452 0.496676 5.34062C0.459441 5.44361 0.459441 5.55639 0.496676 5.65938C1.048 7.08548 2.00512 8.31877 3.24974 9.20683C4.49436 10.0949 5.97192 10.5988 7.4998 10.6562C9.02768 10.5988 10.5052 10.0949 11.7499 9.20683C12.9945 8.31877 13.9516 7.08548 14.5029 5.65938C14.5402 5.55639 14.5402 5.44361 14.5029 5.34062ZM7.4998 9.71875C5.01543 9.71875 2.39043 7.87656 1.43886 5.5C2.39043 3.12344 5.01543 1.28125 7.4998 1.28125C9.98418 1.28125 12.6092 3.12344 13.5607 5.5C12.6092 7.87656 9.98418 9.71875 7.4998 9.71875Z" fill="black"/>
<path d="M7.5 2.6875C6.94374 2.6875 6.39997 2.85245 5.93746 3.16149C5.47495 3.47053 5.11446 3.90979 4.90159 4.4237C4.68872 4.93762 4.63302 5.50312 4.74154 6.04869C4.85006 6.59426 5.11793 7.0954 5.51126 7.48874C5.9046 7.88207 6.40574 8.14994 6.95131 8.25846C7.49688 8.36698 8.06238 8.31128 8.5763 8.09841C9.09022 7.88554 9.52947 7.52506 9.83851 7.06254C10.1476 6.60003 10.3125 6.05626 10.3125 5.5C10.3125 4.75408 10.0162 4.03871 9.48874 3.51126C8.96129 2.98382 8.24592 2.6875 7.5 2.6875ZM7.5 7.375C7.12916 7.375 6.76665 7.26503 6.45831 7.05901C6.14996 6.85298 5.90964 6.56014 5.76773 6.21753C5.62581 5.87492 5.58868 5.49792 5.66103 5.13421C5.73338 4.77049 5.91195 4.4364 6.17418 4.17417C6.4364 3.91195 6.77049 3.73337 7.13421 3.66103C7.49792 3.58868 7.87492 3.62581 8.21753 3.76773C8.56014 3.90964 8.85298 4.14996 9.05901 4.45831C9.26503 4.76665 9.375 5.12916 9.375 5.5C9.375 5.99728 9.17746 6.47419 8.82583 6.82583C8.4742 7.17746 7.99728 7.375 7.5 7.375Z" fill="black"/>
</svg>
