<svg width="16" height="12" viewBox="0 0 16 12" fill="none" xmlns="http://www.w3.org/2000/svg">
<path d="M15.9682 5.81455C15.3409 4.15508 14.2519 2.71997 12.8358 1.68659C11.4196 0.653212 9.73844 0.066858 8 0C6.26156 0.066858 4.58038 0.653212 3.16424 1.68659C1.7481 2.71997 0.659078 4.15508 0.031774 5.81455C-0.0105913 5.93439 -0.0105913 6.06561 0.031774 6.18545C0.659078 7.84492 1.7481 9.28003 3.16424 10.3134C4.58038 11.3468 6.26156 11.9331 8 12C9.73844 11.9331 11.4196 11.3468 12.8358 10.3134C14.2519 9.28003 15.3409 7.84492 15.9682 6.18545C16.0106 6.06561 16.0106 5.93439 15.9682 5.81455ZM8 10.9091C5.17325 10.9091 2.1865 8.76546 1.1038 6C2.1865 3.23455 5.17325 1.09091 8 1.09091C10.8267 1.09091 13.8135 3.23455 14.8962 6C13.8135 8.76546 10.8267 10.9091 8 10.9091Z" fill="#808080"/>
<path d="M8.00039 2.72729C7.36747 2.72729 6.74876 2.91924 6.22251 3.27885C5.69626 3.63846 5.28609 4.14959 5.04389 4.7476C4.80168 5.34562 4.73831 6.00365 4.86178 6.6385C4.98526 7.27335 5.29004 7.85649 5.73758 8.31419C6.18512 8.77189 6.75532 9.08359 7.37608 9.20986C7.99684 9.33614 8.64027 9.27133 9.22501 9.02363C9.80975 8.77592 10.3095 8.35645 10.6612 7.81825C11.0128 7.28005 11.2005 6.64731 11.2005 6.00002C11.2005 5.13204 10.8633 4.29961 10.2632 3.68585C9.66306 3.0721 8.8491 2.72729 8.00039 2.72729ZM8.00039 8.18184C7.57844 8.18184 7.16597 8.05388 6.81514 7.81414C6.4643 7.5744 6.19086 7.23364 6.02939 6.83497C5.86791 6.43629 5.82567 5.9976 5.90798 5.57437C5.9903 5.15114 6.19349 4.76238 6.49185 4.45724C6.79021 4.15211 7.17034 3.94431 7.58418 3.86013C7.99802 3.77594 8.42697 3.81915 8.8168 3.98428C9.20663 4.14942 9.53982 4.42907 9.77424 4.78787C10.0087 5.14667 10.1338 5.5685 10.1338 6.00002C10.1338 6.57868 9.90901 7.13363 9.50892 7.5428C9.10883 7.95197 8.5662 8.18184 8.00039 8.18184Z" fill="#808080"/>
</svg>
