<svg width="19" height="16" viewBox="0 0 19 16" fill="none" xmlns="http://www.w3.org/2000/svg">
<path d="M2.77252 7.78813C2.36707 7.39787 2.05302 6.9287 1.85142 6.41208C1.64982 5.89547 1.56533 5.34335 1.60363 4.79274C1.64192 4.24213 1.80211 3.70577 2.07344 3.21961C2.34478 2.73345 2.721 2.30874 3.17688 1.97394C3.63275 1.63915 4.15774 1.40202 4.71664 1.27845C5.27555 1.15489 5.85545 1.14774 6.41746 1.25748C6.97947 1.36723 7.5106 1.59134 7.97524 1.91478C8.43988 2.23822 8.82728 2.65352 9.11148 3.13283H10.1697C10.4539 2.65352 10.8413 2.23822 11.3059 1.91478C11.7706 1.59134 12.3017 1.36723 12.8637 1.25748C13.4257 1.14774 14.0056 1.15489 14.5645 1.27845C15.1234 1.40202 15.6484 1.63915 16.1043 1.97394C16.5602 2.30874 16.9364 2.73345 17.2077 3.21961C17.4791 3.70577 17.6393 4.24213 17.6776 4.79274C17.7158 5.34335 17.6314 5.89547 17.4298 6.41208C17.2282 6.9287 16.9141 7.39787 16.5087 7.78813L9.64059 14.399L2.77252 7.78904V7.78813ZM17.1769 8.43482C17.6617 7.96831 18.0409 7.41032 18.2907 6.79595C18.5405 6.18158 18.6554 5.52411 18.6284 4.86491C18.6013 4.2057 18.4328 3.55901 18.1334 2.96551C17.8341 2.37201 17.4103 1.84454 16.8888 1.41627C16.3673 0.988008 15.7594 0.668211 15.1033 0.476996C14.4471 0.28578 13.7569 0.227283 13.0762 0.305183C12.3954 0.383083 11.7387 0.595694 11.1475 0.929646C10.5562 1.2636 10.0432 1.71167 9.64059 2.24567C9.23802 1.71167 8.72497 1.2636 8.13372 0.929646C7.54247 0.595694 6.8858 0.383083 6.20502 0.305183C5.52424 0.227283 4.83407 0.28578 4.17792 0.476996C3.52177 0.668211 2.91384 0.988008 2.39235 1.41627C1.87087 1.84454 1.44712 2.37201 1.14774 2.96551C0.84837 3.55901 0.679856 4.2057 0.652798 4.86491C0.62574 5.52411 0.740724 6.18158 0.990518 6.79595C1.24031 7.41032 1.61951 7.96831 2.10427 8.43482L9.64059 15.686L17.1769 8.43573V8.43482Z" fill="#808080"/>
</svg>
