<svg width="17" height="15" viewBox="0 0 17 15" fill="none" xmlns="http://www.w3.org/2000/svg">
<path d="M11.457 0.68047C10.4237 0.972479 9.52447 1.59791 8.90469 2.45208L8.5 3.00981L8.09531 2.45208C7.47545 1.59781 6.5761 0.972326 5.54267 0.680362L5.54168 0.680084C3.37357 0.0627515 1.57821 1.13404 0.977505 2.33982L0.977315 2.3402C0.0929021 4.11167 0.412186 6.15725 2.16332 8.50615L11.457 0.68047ZM11.457 0.68047C13.6227 0.0720076 15.4227 1.13595 16.0225 2.33982L16.0227 2.3402C16.9071 4.11167 16.5878 6.15725 14.8367 8.50615C13.4516 10.3614 11.4567 12.2622 8.5218 14.4926C8.51666 14.4965 8.50905 14.4996 8.5 14.5C8.49095 14.4996 8.48334 14.4965 8.4782 14.4926C5.5434 12.2623 3.54863 10.3616 2.16352 8.50642L11.457 0.68047ZM1.05657 2.3135L1.04712 2.32941L1.03886 2.34597C0.0961813 4.23761 0.577176 6.2843 2.22294 8.48619L2.22719 8.49188L2.2316 8.49744C3.9483 10.6632 5.95824 12.5899 8.2059 14.2247L8.49988 14.4385L8.79394 14.2248C11.0412 12.5917 13.0512 10.6667 14.7682 8.50284L14.7727 8.49726L14.7769 8.49156C16.4284 6.28408 16.9039 4.23706 15.9609 2.35061L15.9609 2.3506L15.9588 2.3466C15.3068 1.07107 13.456 0.171266 11.4809 0.714934L11.4809 0.714895L11.4748 0.716667C10.84 0.900153 10.2508 1.2118 9.74531 1.63215C9.23978 2.05253 8.82908 2.57242 8.54028 3.15879L8.53365 3.17225L8.52783 3.1861C8.52684 3.18845 8.52439 3.19227 8.51904 3.19578C8.51357 3.19936 8.506 3.20193 8.49734 3.20193C8.48869 3.20193 8.48111 3.19936 8.47564 3.19578C8.47029 3.19227 8.46784 3.18845 8.46685 3.1861L8.46142 3.17317L8.45528 3.16057C8.16837 2.57216 7.75798 2.05056 7.25166 1.62952C6.74538 1.20852 6.15453 0.897465 5.51806 0.716137L5.5177 0.716035C5.13124 0.606251 4.73131 0.549177 4.32915 0.54635C3.67447 0.52289 3.02493 0.673442 2.44953 0.982817C1.87163 1.29354 1.38968 1.75313 1.05657 2.3135Z" fill="black" stroke="black"/>
</svg>
